<svg aria-hidden="true" style="width:0;height:0;position:absolute;overflow:hidden" xmlns="http://www.w3.org/2000/svg"><defs><symbol id="icon-search" viewBox="0 0 32 32"><path d="M12.125.069C9.894.3 7.669 1.175 5.75 2.588c-.713.519-2.019 1.813-2.544 2.512C1.556 7.281.675 9.756.581 12.469a12.39 12.39 0 0 0 .644 4.519 12.893 12.893 0 0 0 3.125 5.037c2.088 2.087 4.725 3.369 7.669 3.731.794.094 2.819.044 3.575-.094 1.756-.319 3.319-.919 4.738-1.806l.544-.35 3.837 3.988c2.106 2.188 3.919 4.056 4.025 4.144.675.563 1.837.406 2.35-.313.262-.363.337-.6.344-1.025.012-.675-.031-.731-4.087-4.938-2.025-2.1-3.75-3.9-3.825-3.994l-.144-.169.337-.425c2.262-2.906 3.144-6.725 2.406-10.463-.369-1.869-1.337-3.919-2.575-5.456A12.957 12.957 0 0 0 12.125.068zm2.563 3.393c4.056.544 7.269 3.512 8.125 7.512.175.794.238 2.388.125 3.144-.306 2.175-1.225 4.031-2.725 5.531-1.444 1.45-3.238 2.363-5.275 2.7-.681.113-2.181.113-2.912 0a9.538 9.538 0 0 1-6.494-4.162 8.494 8.494 0 0 1-1.094-2.244c-.319-.944-.444-1.65-.481-2.713-.206-5.331 4.094-9.806 9.45-9.85.344 0 .919.038 1.281.081z"/></symbol></defs></svg>