<svg aria-hidden="true" style="position: absolute; width: 0; height: 0; overflow: hidden;" version="1.1" xmlns="http://www.w3.org/2000/svg" xmlns:xlink="http://www.w3.org/1999/xlink">
<defs>
<symbol id="icon-search" viewBox="0 0 32 32">
<path d="M12.125 0.069c-2.231 0.231-4.456 1.106-6.375 2.519-0.713 0.519-2.019 1.813-2.544 2.512-1.65 2.181-2.531 4.656-2.625 7.369-0.056 1.619 0.144 3.006 0.644 4.519 0.625 1.881 1.7 3.613 3.125 5.037 2.088 2.087 4.725 3.369 7.669 3.731 0.794 0.094 2.819 0.044 3.575-0.094 1.756-0.319 3.319-0.919 4.738-1.806l0.544-0.35 3.837 3.988c2.106 2.188 3.919 4.056 4.025 4.144 0.675 0.563 1.837 0.406 2.35-0.313 0.262-0.363 0.337-0.6 0.344-1.025 0.012-0.675-0.031-0.731-4.087-4.938-2.025-2.1-3.75-3.9-3.825-3.994l-0.144-0.169 0.337-0.425c2.262-2.906 3.144-6.725 2.406-10.463-0.369-1.869-1.337-3.919-2.575-5.456-2.762-3.438-7.056-5.231-11.419-4.787zM14.688 3.462c4.056 0.544 7.269 3.512 8.125 7.512 0.175 0.794 0.238 2.388 0.125 3.144-0.306 2.175-1.225 4.031-2.725 5.531-1.444 1.45-3.238 2.363-5.275 2.7-0.681 0.113-2.181 0.113-2.912 0-2.637-0.4-5.025-1.931-6.494-4.162-0.525-0.794-0.806-1.375-1.094-2.244-0.319-0.944-0.444-1.65-0.481-2.713-0.206-5.331 4.094-9.806 9.45-9.85 0.344 0 0.919 0.038 1.281 0.081z"></path>
</symbol>
</defs>
</svg>
